<svg
  version="1.2"
  xmlns="http://www.w3.org/2000/svg"
  xmlns:xlink="http://www.w3.org/1999/xlink"
  preserveAspectRatio="none"
  viewBox="0 0 512 518.8"
  style="fill: #f1736a"
>
  <path
    d="M349.75,325.1,275.9,251.21a24.64,24.64,0,0,0-34.83,0L167.22,325.1c-15.38,15.37-4.82,42,17.88,42h60.3V509.56a9.24,9.24,0,0,0,9.24,9.24h7.69a9.24,9.24,0,0,0,9.24-9.24V367.14h60.3C354.49,367.14,365.17,340.52,349.75,325.1ZM184.6,342.51l73.89-73.88,73.88,73.88Z"
    vector-effect="non-scaling-stroke"
  ></path>
  <circle r="32" cy="96" cx="320" vector-effect="non-scaling-stroke"></circle>
  <path
    d="M464,0H48A48,48,0,0,0,0,48V400a48,48,0,0,0,48,48H217V416H48a16,16,0,0,1-16-16V192H480V400a16,16,0,0,1-16,16H306v32H464a48,48,0,0,0,48-48V48A48,48,0,0,0,464,0Zm16,160H32V48A16,16,0,0,1,48,32H464a16,16,0,0,1,16,16Z"
    vector-effect="non-scaling-stroke"
  ></path>
  <circle r="32" cy="96" cx="224" vector-effect="non-scaling-stroke"></circle>
  <circle r="32" cy="96" cx="416" vector-effect="non-scaling-stroke"></circle>
</svg>
